<svg xmlns="http://www.w3.org/2000/svg" width="600" height="400" viewBox="0 0 600 400">
  <!-- Background -->
  <rect width="600" height="400" fill="#795548" rx="8" ry="8"/>
  
  <!-- Sky -->
  <rect x="0" y="0" width="600" height="150" fill="#FFB74D"/>
  
  <!-- Mountains -->
  <path d="M0,150 L150,50 L250,130 L350,30 L450,110 L550,40 L600,80 L600,150 Z" fill="#8D6E63"/>
  <path d="M0,150 L100,80 L200,140 L300,60 L400,130 L500,70 L600,120 L600,150 Z" fill="#6D4C41"/>
  
  <!-- Ground -->
  <rect x="0" y="150" width="600" height="250" fill="#8D6E63"/>
  <rect x="0" y="150" width="600" height="20" fill="#6D4C41" opacity="0.3"/>
  
  <!-- Rocks and boulders -->
  <ellipse cx="500" cy="200" rx="40" ry="20" fill="#5D4037"/>
  <ellipse cx="120" cy="260" rx="50" ry="25" fill="#5D4037"/>
  <ellipse cx="350" cy="320" rx="35" ry="18" fill="#5D4037"/>
  
  <!-- Palm tree -->
  <rect x="80" y="150" width="15" height="60" fill="#6D4C41"/>
  <path d="M87,150 L70,130 L65,110 L87,120 L105,105 L95,125 L110,140 Z" fill="#43A047"/>
  
  <rect x="480" y="150" width="15" height="50" fill="#6D4C41"/>
  <path d="M487,150 L470,135 L465,115 L487,125 L505,115 L495,135 L510,145 Z" fill="#43A047"/>
  
  <!-- T-Rex (Simplified) -->
  <g transform="translate(420, 220)">
    <!-- Body -->
    <ellipse cx="0" cy="0" rx="40" ry="25" fill="#33691E"/>
    <!-- Neck -->
    <path d="M20,-15 C40,-25 40,-50 30,-70" fill="#33691E" stroke="#2E7D32" stroke-width="15" stroke-linecap="round"/>
    <!-- Head -->
    <ellipse cx="30" cy="-70" rx="20" ry="12" fill="#33691E"/>
    <!-- Jaw -->
    <path d="M30,-70 L60,-65 L50,-75 Z" fill="#33691E"/>
    <!-- Eye -->
    <circle cx="25" cy="-75" r="3" fill="#FFFFFF"/>
    <circle cx="25" cy="-75" r="1" fill="#000000"/>
    <!-- Legs -->
    <rect x="-20" y="0" width="10" height="40" fill="#33691E"/>
    <rect x="10" y="0" width="10" height="40" fill="#33691E"/>
    <!-- Tail -->
    <path d="M-30,0 C-60,0 -80,10 -100,-10" fill="#33691E" stroke="#2E7D32" stroke-width="15" stroke-linecap="round"/>
  </g>
  
  <!-- Bunny -->
  <g transform="translate(200, 250)">
    <!-- Body -->
    <ellipse cx="0" cy="0" rx="20" ry="25" fill="#FFFFFF"/>
    <!-- Head -->
    <circle cx="0" cy="-35" r="18" fill="#FFFFFF"/>
    <!-- Ears -->
    <ellipse cx="-10" cy="-53" rx="6" ry="18" fill="#FFFFFF"/>
    <ellipse cx="10" cy="-53" rx="6" ry="18" fill="#FFFFFF"/>
    <!-- Eyes -->
    <circle cx="-6" cy="-38" r="2.5" fill="#000000"/>
    <circle cx="6" cy="-38" r="2.5" fill="#000000"/>
    <!-- Nose -->
    <ellipse cx="0" cy="-33" rx="3" ry="2" fill="#FF9E80"/>
  </g>
  
  <!-- Carrots -->
  <g transform="translate(100, 200)">
    <path d="M0,0 L8,-20 L-8,-20 Z" fill="#FF8800"/>
    <rect x="-2" y="-24" width="4" height="8" fill="#4CAF50"/>
  </g>
  
  <g transform="translate(300, 300)">
    <path d="M0,0 L8,-20 L-8,-20 Z" fill="#FF8800"/>
    <rect x="-2" y="-24" width="4" height="8" fill="#4CAF50"/>
  </g>
  
  <g transform="translate(150, 280)">
    <path d="M0,0 L8,-20 L-8,-20 Z" fill="#FF8800"/>
    <rect x="-2" y="-24" width="4" height="8" fill="#4CAF50"/>
  </g>
  
  <g transform="translate(400, 180)">
    <path d="M0,0 L8,-20 L-8,-20 Z" fill="#FF8800"/>
    <rect x="-2" y="-24" width="4" height="8" fill="#4CAF50"/>
  </g>
  
  <g transform="translate(550, 250)">
    <path d="M0,0 L8,-20 L-8,-20 Z" fill="#FF8800"/>
    <rect x="-2" y="-24" width="4" height="8" fill="#4CAF50"/>
  </g>
  
  <!-- Level Text -->
  <rect x="20" y="20" width="140" height="40" rx="20" ry="20" fill="rgba(0,0,0,0.5)"/>
  <text x="90" y="45" font-family="Arial, sans-serif" font-size="24" font-weight="bold" fill="white" text-anchor="middle">Level 5</text>
  
  <text x="300" y="370" font-family="Arial, sans-serif" font-size="18" font-weight="bold" fill="#FFE0B2" text-anchor="middle">Jurassic Park</text>
</svg>
